<?xml version="1.0" encoding="UTF-8"?>
<svg width="213px" height="213px" viewBox="0 0 213 213" version="1.1" xmlns="http://www.w3.org/2000/svg" xmlns:xlink="http://www.w3.org/1999/xlink">
    <!-- Generator: Sketch 49.3 (51167) - http://www.bohemiancoding.com/sketch -->
    <title>spinner opacity</title>
    <desc>Created with Sketch.</desc>
    <defs></defs>
    <g id="spinner-opacity" stroke="none" stroke-width="1" fill="none" fill-rule="evenodd">
        <path d="M106.3345,33.3335 C103.0205,33.3335 100.3345,30.6465 100.3345,27.3335 L100.3345,6.0005 C100.3345,2.6865 103.0205,0.0005 106.3345,0.0005 C109.6475,0.0005 112.3345,2.6865 112.3345,6.0005 L112.3345,27.3335 C112.3345,30.6465 109.6475,33.3335 106.3345,33.3335" id="Fill-1" fill-opacity="0.049999997" fill="#000000"></path>
        <path d="M106.3345,212.6665 C103.0205,212.6665 100.3345,209.9805 100.3345,206.6665 L100.3345,185.3325 C100.3345,182.0205 103.0205,179.3325 106.3345,179.3325 C109.6475,179.3325 112.3345,182.0205 112.3345,185.3325 L112.3345,206.6665 C112.3345,209.9805 109.6475,212.6665 106.3345,212.6665" id="Fill-3" fill-opacity="0.449999988" fill="#000000"></path>
        <path d="M206.6665,112.3325 L185.3345,112.3325 C182.0205,112.3325 179.3345,109.6465 179.3345,106.3325 C179.3345,103.0195 182.0205,100.3325 185.3345,100.3325 L206.6665,100.3325 C209.9805,100.3325 212.6665,103.0195 212.6665,106.3325 C212.6665,109.6465 209.9805,112.3325 206.6665,112.3325" id="Fill-5" fill-opacity="0.25" fill="#000000"></path>
        <path d="M27.3345,112.3325 L6.0005,112.3325 C2.6865,112.3325 0.0005,109.6465 0.0005,106.3325 C0.0005,103.0195 2.6865,100.3325 6.0005,100.3325 L27.3345,100.3325 C30.6475,100.3325 33.3345,103.0195 33.3345,106.3325 C33.3345,109.6465 30.6475,112.3325 27.3345,112.3325" id="Fill-7" fill-opacity="0.649999976" fill="#000000"></path>
        <path d="M177.2798,183.2798 C175.7448,183.2798 174.2098,182.6938 173.0378,181.5218 L157.9538,166.4358 C155.6098,164.0938 155.6098,160.2958 157.9538,157.9518 C160.2958,155.6078 164.0958,155.6078 166.4378,157.9518 L181.5218,173.0378 C183.8658,175.3798 183.8658,179.1778 181.5218,181.5218 C180.3518,182.6938 178.8148,183.2798 177.2798,183.2798" id="Fill-9" fill-opacity="0.349999994" fill="#000000"></path>
        <path d="M35.3872,183.2798 C33.8522,183.2798 32.3172,182.6938 31.1452,181.5218 C28.8012,179.1778 28.8012,175.3798 31.1452,173.0378 L46.2312,157.9518 C48.5732,155.6078 52.3732,155.6078 54.7152,157.9518 C57.0592,160.2958 57.0592,164.0938 54.7152,166.4358 L39.6292,181.5218 C38.4592,182.6938 36.9222,183.2798 35.3872,183.2798" id="Fill-13" fill-opacity="0.550000012" fill="#000000"></path>
        <path d="M162.1958,56.4717 C160.6608,56.4717 159.1238,55.8857 157.9538,54.7147 C155.6098,52.3707 155.6098,48.5727 157.9538,46.2287 L173.0378,31.1437 C175.3798,28.8017 179.1798,28.8017 181.5218,31.1437 C183.8658,33.4877 183.8658,37.2857 181.5218,39.6297 L166.4378,54.7147 C165.2658,55.8857 163.7308,56.4717 162.1958,56.4717" id="Fill-15" fill-opacity="0.149999991" fill="#000000"></path>
        <path d="M144.3267,205.1978 C141.9637,205.1978 139.7227,203.7918 138.7717,201.4678 L130.6937,181.7228 C129.4397,178.6568 130.9087,175.1528 133.9747,173.8968 C137.0397,172.6448 140.5457,174.1118 141.8017,177.1798 L149.8797,196.9248 C151.1337,199.9908 149.6647,203.4948 146.5967,204.7488 C145.8537,205.0528 145.0847,205.1978 144.3267,205.1978" id="Fill-19" fill-opacity="0.399999976" fill="#000000"></path>
        <path d="M179.4536,82.4224 C177.0886,82.4224 174.8486,81.0164 173.8966,78.6924 C172.6426,75.6244 174.1116,72.1214 177.1806,70.8664 L196.9246,62.7894 C199.9886,61.5334 203.4946,63.0034 204.7506,66.0704 C206.0046,69.1374 204.5356,72.6404 201.4676,73.8954 L181.7236,81.9734 C180.9786,82.2774 180.2096,82.4224 179.4536,82.4224" id="Fill-21" fill-opacity="0.199999988" fill="#000000"></path>
        <path d="M13.4731,150.3267 C11.1081,150.3267 8.8681,148.9207 7.9181,146.5967 C6.6621,143.5297 8.1311,140.0257 11.2001,138.7697 L30.9441,130.6917 C34.0081,129.4397 37.5141,130.9067 38.7701,133.9747 C40.0241,137.0417 38.5551,140.5457 35.4871,141.7997 L15.7431,149.8777 C14.9981,150.1817 14.2291,150.3267 13.4731,150.3267" id="Fill-23" fill-opacity="0.600000024" fill="#000000"></path>
        <path d="M198.8579,151.1353 C198.0849,151.1353 197.2989,150.9853 196.5419,150.6663 L176.8679,142.4163 C173.8109,141.1353 172.3739,137.6193 173.6549,134.5633 C174.9359,131.5083 178.4519,130.0713 181.5079,131.3503 L201.1819,139.6003 C204.2369,140.8813 205.6759,144.3993 204.3949,147.4533 C203.4299,149.7523 201.2039,151.1353 198.8579,151.1353" id="Fill-25" fill-opacity="0.300000012" fill="#000000"></path>
        <path d="M33.4771,81.7857 C32.7041,81.7857 31.9161,81.6357 31.1591,81.3167 L11.4871,73.0667 C8.4301,71.7847 6.9931,68.2687 8.2741,65.2127 C9.5551,62.1577 13.0711,60.7177 16.1271,61.9997 L35.7991,70.2497 C38.8561,71.5317 40.2931,75.0477 39.0121,78.1037 C38.0491,80.4007 35.8211,81.7857 33.4771,81.7857" id="Fill-27" fill-opacity="0.699999988" fill="#000000"></path>
        <path d="M67.5298,204.8618 C66.7568,204.8618 65.9708,204.7118 65.2138,204.3928 C62.1568,203.1118 60.7188,199.5958 62.0008,196.5398 L70.2508,176.8678 C71.5318,173.8108 75.0478,172.3718 78.1038,173.6548 C81.1588,174.9358 82.5978,178.4518 81.3168,181.5078 L73.0668,201.1798 C72.1018,203.4788 69.8758,204.8618 67.5298,204.8618" id="Fill-29" fill-opacity="0.5" fill="#000000"></path>
        <path d="M136.8813,39.481 C136.1083,39.481 135.3203,39.331 134.5633,39.013 C131.5083,37.731 130.0693,34.215 131.3503,31.159 L139.6003,11.485 C140.8813,8.43 144.3973,6.99 147.4533,8.273 C150.5103,9.554 151.9473,13.07 150.6663,16.126 L142.4163,35.8 C141.4533,38.098 139.2273,39.481 136.8813,39.481" id="Fill-31" fill-opacity="0.100000001" fill="#000000"></path>
    </g>
</svg>
