<svg id="Capa_1" enable-background="new 0 0 480 480" height="512" viewBox="0 0 480 480" width="512" xmlns="http://www.w3.org/2000/svg"><path d="m472 0h-464c-4.418 0-8 3.582-8 8v464c0 4.418 3.582 8 8 8h464c4.418 0 8-3.582 8-8v-464c0-4.418-3.582-8-8-8zm-456 464v-96h26.051c25.71 34.799 61.202 61.153 101.949 75.7v20.3zm448 0h-304v-26.037c0-3.47-2.238-6.545-5.54-7.612-41.095-13.423-76.782-39.708-101.789-74.972-1.5-2.119-3.934-3.379-6.53-3.379h-30.141v-336h448z"/><path d="m216 424c101.458 0 184-82.542 184-184 .04-40.174-13.137-79.245-37.5-111.188l13.5-13.5 10.343 10.343c3.124 3.124 8.189 3.124 11.314 0l48-48c3.124-3.124 3.124-8.189 0-11.314l-32-32c-3.124-3.124-8.189-3.124-11.314 0l-48 48c-3.124 3.124-3.124 8.189 0 11.314l10.343 10.345-12.451 12.45c-34.82-38.508-84.318-60.471-136.235-60.45-101.458 0-184 82.542-184 184s82.542 184 184 184zm192-372.687 20.687 20.687-36.687 36.687-20.687-20.687zm-192 20.687c47.673-.016 93.098 20.268 124.907 55.778l-4.506 4.506c-10.536 10.48-16.441 24.74-16.4 39.6v112.234c.029 10.614-4.191 20.798-11.717 28.282l-.284.285-6.343-6.343c-3.124-3.124-8.189-3.124-11.314 0l-40 40c-3.124 3.124-3.124 8.189 0 11.314l24 24c3.124 3.124 8.189 3.124 11.314 0l40-40c3.124-3.124 3.124-8.189 0-11.314l-6.343-6.342.285-.284c10.536-10.48 16.441-24.74 16.4-39.6v-112.234c-.029-10.614 4.191-20.798 11.717-28.282l3.366-3.366c21.413 28.852 32.956 63.837 32.918 99.766 0 92.636-75.364 168-168 168s-168-75.364-168-168 75.364-168 168-168zm92.687 264-28.687 28.687-12.687-12.687 28.687-28.687z"/><path d="m216 296c30.928 0 56-25.072 56-56s-25.072-56-56-56-56 25.072-56 56c.035 30.914 25.086 55.965 56 56zm0-96c22.091 0 40 17.909 40 40s-17.909 40-40 40-40-17.909-40-40c.025-22.081 17.919-39.975 40-40z"/><path d="m48 408c-13.255 0-24 10.745-24 24s10.745 24 24 24 24-10.745 24-24c-.015-13.248-10.752-23.985-24-24zm0 32c-4.418 0-8-3.582-8-8s3.582-8 8-8 8 3.582 8 8c-.005 4.416-3.584 7.995-8 8z"/><path d="m64 96c17.673 0 32-14.327 32-32s-14.327-32-32-32-32 14.327-32 32c.02 17.665 14.335 31.98 32 32zm0-48c8.837 0 16 7.163 16 16s-7.163 16-16 16-16-7.163-16-16c.01-8.832 7.168-15.99 16-16z"/><path d="m139.981 371.653 8.019-13.853c-20.664-11.966-37.834-29.136-49.8-49.8l-13.849 8.014c13.368 23.085 32.547 42.267 55.63 55.639z"/><path d="m155.983 343.936 8.017-13.85c-15.804-9.151-28.935-22.282-38.086-38.086l-13.85 8.012c10.554 18.225 25.696 33.368 43.919 43.924z"/><path d="m171.986 316.219 8.014-13.85c-10.942-6.336-20.033-15.427-26.368-26.369l-13.85 8.012c7.739 13.363 18.841 24.467 32.204 32.207z"/><path d="m251.213 108.613 4.127-15.459c-25.777-6.869-52.903-6.869-78.68 0l4.127 15.459c23.073-6.15 47.353-6.15 70.426 0z"/><path d="m247.056 124.068c-20.349-5.422-41.763-5.422-62.112 0l4.127 15.459c17.645-4.703 36.213-4.703 53.858 0z"/><path d="m193.228 154.983 4.126 15.459c12.217-3.255 25.074-3.255 37.291 0l4.126-15.459c-14.921-3.975-30.622-3.975-45.543 0z"/><circle cx="216" cy="240" r="8"/><path d="m440 328h-8v-64h-16v64h-8c-4.418 0-8 3.582-8 8v32c0 4.418 3.582 8 8 8h8v64h16v-64h8c4.418 0 8-3.582 8-8v-32c0-4.418-3.582-8-8-8zm-8 32h-16v-16h16z"/></svg>